<mxfile host="Electron" modified="2023-07-04T10:43:14.799Z" agent="Mozilla/5.0 (Macintosh; Intel Mac OS X 10_15_7) AppleWebKit/537.36 (KHTML, like Gecko) draw.io/21.5.1 Chrome/112.0.5615.204 Electron/24.6.0 Safari/537.36" etag="cRsIOMPUop9mTkL0diMK" version="21.5.1" type="device">
  <diagram name="Page-1" id="IX2sbBPFJrls7Xq33dwb">
    <mxGraphModel dx="1217" dy="1139" grid="1" gridSize="10" guides="1" tooltips="1" connect="1" arrows="1" fold="1" page="1" pageScale="1" pageWidth="827" pageHeight="1169" math="0" shadow="0">
      <root>
        <mxCell id="0" />
        <mxCell id="1" parent="0" />
        <mxCell id="jbtqDZHQ1y1ZXkg8tkZU-264" value="" style="html=1;verticalLabelPosition=bottom;align=center;labelBackgroundColor=#ffffff;verticalAlign=top;strokeWidth=2;strokeColor=#FF3333;shadow=0;dashed=0;shape=mxgraph.ios7.icons.data;" parent="1" vertex="1">
          <mxGeometry x="150" y="41" width="540" height="169" as="geometry" />
        </mxCell>
        <mxCell id="jbtqDZHQ1y1ZXkg8tkZU-265" value="" style="rounded=0;whiteSpace=wrap;html=1;strokeColor=none;" parent="1" vertex="1">
          <mxGeometry x="150.68" y="102.30769230769229" width="537.9230769230769" height="76.15384615384616" as="geometry" />
        </mxCell>
        <mxCell id="jbtqDZHQ1y1ZXkg8tkZU-266" value="" style="rounded=1;whiteSpace=wrap;html=1;dashed=1;" parent="1" vertex="1">
          <mxGeometry x="165.33" y="92.88" width="145" height="95" as="geometry" />
        </mxCell>
        <mxCell id="3bR0r6EprU-SrU2B4QbB-1" value="STOCK" style="text;strokeColor=none;align=center;fillColor=none;html=1;verticalAlign=middle;whiteSpace=wrap;rounded=0;fontStyle=1;fontSize=16;fontColor=#FF3333;labelBackgroundColor=default;" vertex="1" parent="1">
          <mxGeometry x="164.9" y="81.49999999999999" width="60" height="30" as="geometry" />
        </mxCell>
        <mxCell id="3bR0r6EprU-SrU2B4QbB-8" style="edgeStyle=orthogonalEdgeStyle;rounded=0;orthogonalLoop=1;jettySize=auto;html=1;entryX=-0.002;entryY=0.497;entryDx=0;entryDy=0;entryPerimeter=0;fontColor=#035073;strokeWidth=3;strokeColor=#035073;" edge="1" parent="1" source="3bR0r6EprU-SrU2B4QbB-7" target="jbtqDZHQ1y1ZXkg8tkZU-264">
          <mxGeometry relative="1" as="geometry" />
        </mxCell>
        <mxCell id="3bR0r6EprU-SrU2B4QbB-7" value="" style="sketch=0;points=[[0.015,0.015,0],[0.985,0.015,0],[0.985,0.985,0],[0.015,0.985,0],[0.25,0,0],[0.5,0,0],[0.75,0,0],[1,0.25,0],[1,0.5,0],[1,0.75,0],[0.75,1,0],[0.5,1,0],[0.25,1,0],[0,0.75,0],[0,0.5,0],[0,0.25,0]];verticalLabelPosition=bottom;html=1;verticalAlign=top;aspect=fixed;align=center;pointerEvents=1;shape=mxgraph.cisco19.server;fillColor=#005073;strokeColor=none;fontFamily=Times New Roman;fontSize=14;" vertex="1" parent="1">
          <mxGeometry x="20" y="45.5" width="88" height="160" as="geometry" />
        </mxCell>
        <mxCell id="3bR0r6EprU-SrU2B4QbB-10" value="Online Shop" style="text;strokeColor=none;align=center;fillColor=none;html=1;verticalAlign=middle;whiteSpace=wrap;rounded=0;fontSize=14;fontColor=#035073;" vertex="1" parent="1">
          <mxGeometry x="16" y="51.5" width="96" height="30" as="geometry" />
        </mxCell>
        <mxCell id="3bR0r6EprU-SrU2B4QbB-468" style="edgeStyle=orthogonalEdgeStyle;rounded=0;orthogonalLoop=1;jettySize=auto;html=1;entryX=0.009;entryY=0.589;entryDx=0;entryDy=0;entryPerimeter=0;startArrow=classic;startFill=1;" edge="1" parent="1" source="3bR0r6EprU-SrU2B4QbB-60" target="3bR0r6EprU-SrU2B4QbB-61">
          <mxGeometry relative="1" as="geometry" />
        </mxCell>
        <mxCell id="3bR0r6EprU-SrU2B4QbB-472" style="edgeStyle=orthogonalEdgeStyle;rounded=0;orthogonalLoop=1;jettySize=auto;html=1;exitX=0;exitY=0.5;exitDx=0;exitDy=0;startArrow=classic;startFill=1;entryX=1.003;entryY=0.522;entryDx=0;entryDy=0;entryPerimeter=0;" edge="1" parent="1" source="3bR0r6EprU-SrU2B4QbB-60" target="jbtqDZHQ1y1ZXkg8tkZU-266">
          <mxGeometry relative="1" as="geometry">
            <mxPoint x="320" y="143" as="targetPoint" />
          </mxGeometry>
        </mxCell>
        <mxCell id="3bR0r6EprU-SrU2B4QbB-60" value="" style="rounded=1;whiteSpace=wrap;html=1;dashed=1;" vertex="1" parent="1">
          <mxGeometry x="347.5" y="95.71000000000001" width="145" height="95" as="geometry" />
        </mxCell>
        <mxCell id="3bR0r6EprU-SrU2B4QbB-61" value="" style="rounded=1;whiteSpace=wrap;html=1;dashed=1;" vertex="1" parent="1">
          <mxGeometry x="524.6400000000001" y="88.08" width="145" height="95" as="geometry" />
        </mxCell>
        <mxCell id="3bR0r6EprU-SrU2B4QbB-62" value="ORDERS" style="text;strokeColor=none;align=center;fillColor=none;html=1;verticalAlign=middle;whiteSpace=wrap;rounded=0;fontStyle=1;fontSize=16;fontColor=#FF3333;labelBackgroundColor=default;" vertex="1" parent="1">
          <mxGeometry x="340" y="81.49999999999999" width="60" height="30" as="geometry" />
        </mxCell>
        <mxCell id="3bR0r6EprU-SrU2B4QbB-63" value="CUSTOMERS" style="text;strokeColor=none;align=center;fillColor=none;html=1;verticalAlign=middle;whiteSpace=wrap;rounded=0;fontStyle=1;fontSize=16;fontColor=#FF3333;labelBackgroundColor=default;" vertex="1" parent="1">
          <mxGeometry x="540.4200000000001" y="81.49999999999999" width="60" height="30" as="geometry" />
        </mxCell>
        <mxCell id="3bR0r6EprU-SrU2B4QbB-230" value="BEER" style="shape=table;startSize=20;container=1;collapsible=0;childLayout=tableLayout;strokeColor=default;fontSize=10;fontFamily=Times New Roman;" vertex="1" parent="1">
          <mxGeometry x="175.12" y="110.58" width="49.78" height="50" as="geometry" />
        </mxCell>
        <mxCell id="3bR0r6EprU-SrU2B4QbB-231" value="" style="shape=tableRow;horizontal=0;startSize=0;swimlaneHead=0;swimlaneBody=0;strokeColor=inherit;top=0;left=0;bottom=0;right=0;collapsible=0;dropTarget=0;fillColor=none;points=[[0,0.5],[1,0.5]];portConstraint=eastwest;fontSize=16;" vertex="1" parent="3bR0r6EprU-SrU2B4QbB-230">
          <mxGeometry y="20" width="49.78" height="12" as="geometry" />
        </mxCell>
        <mxCell id="3bR0r6EprU-SrU2B4QbB-232" value="" style="shape=partialRectangle;html=1;whiteSpace=wrap;connectable=0;strokeColor=inherit;overflow=hidden;fillColor=none;top=0;left=0;bottom=0;right=0;pointerEvents=1;fontSize=16;" vertex="1" parent="3bR0r6EprU-SrU2B4QbB-231">
          <mxGeometry width="14" height="12" as="geometry">
            <mxRectangle width="14" height="12" as="alternateBounds" />
          </mxGeometry>
        </mxCell>
        <mxCell id="3bR0r6EprU-SrU2B4QbB-233" value="" style="shape=partialRectangle;html=1;whiteSpace=wrap;connectable=0;strokeColor=inherit;overflow=hidden;fillColor=none;top=0;left=0;bottom=0;right=0;pointerEvents=1;fontSize=16;" vertex="1" parent="3bR0r6EprU-SrU2B4QbB-231">
          <mxGeometry x="14" width="11" height="12" as="geometry">
            <mxRectangle width="11" height="12" as="alternateBounds" />
          </mxGeometry>
        </mxCell>
        <mxCell id="3bR0r6EprU-SrU2B4QbB-234" value="" style="shape=partialRectangle;html=1;whiteSpace=wrap;connectable=0;strokeColor=inherit;overflow=hidden;fillColor=none;top=0;left=0;bottom=0;right=0;pointerEvents=1;fontSize=16;" vertex="1" parent="3bR0r6EprU-SrU2B4QbB-231">
          <mxGeometry x="25" width="25" height="12" as="geometry">
            <mxRectangle width="25" height="12" as="alternateBounds" />
          </mxGeometry>
        </mxCell>
        <mxCell id="3bR0r6EprU-SrU2B4QbB-235" value="" style="shape=tableRow;horizontal=0;startSize=0;swimlaneHead=0;swimlaneBody=0;strokeColor=inherit;top=0;left=0;bottom=0;right=0;collapsible=0;dropTarget=0;fillColor=none;points=[[0,0.5],[1,0.5]];portConstraint=eastwest;fontSize=16;" vertex="1" parent="3bR0r6EprU-SrU2B4QbB-230">
          <mxGeometry y="32" width="49.78" height="6" as="geometry" />
        </mxCell>
        <mxCell id="3bR0r6EprU-SrU2B4QbB-236" value="" style="shape=partialRectangle;html=1;whiteSpace=wrap;connectable=0;strokeColor=inherit;overflow=hidden;fillColor=none;top=0;left=0;bottom=0;right=0;pointerEvents=1;fontSize=16;" vertex="1" parent="3bR0r6EprU-SrU2B4QbB-235">
          <mxGeometry width="14" height="6" as="geometry">
            <mxRectangle width="14" height="6" as="alternateBounds" />
          </mxGeometry>
        </mxCell>
        <mxCell id="3bR0r6EprU-SrU2B4QbB-237" value="" style="shape=partialRectangle;html=1;whiteSpace=wrap;connectable=0;strokeColor=inherit;overflow=hidden;fillColor=none;top=0;left=0;bottom=0;right=0;pointerEvents=1;fontSize=16;" vertex="1" parent="3bR0r6EprU-SrU2B4QbB-235">
          <mxGeometry x="14" width="11" height="6" as="geometry">
            <mxRectangle width="11" height="6" as="alternateBounds" />
          </mxGeometry>
        </mxCell>
        <mxCell id="3bR0r6EprU-SrU2B4QbB-238" value="" style="shape=partialRectangle;html=1;whiteSpace=wrap;connectable=0;strokeColor=inherit;overflow=hidden;fillColor=none;top=0;left=0;bottom=0;right=0;pointerEvents=1;fontSize=16;" vertex="1" parent="3bR0r6EprU-SrU2B4QbB-235">
          <mxGeometry x="25" width="25" height="6" as="geometry">
            <mxRectangle width="25" height="6" as="alternateBounds" />
          </mxGeometry>
        </mxCell>
        <mxCell id="3bR0r6EprU-SrU2B4QbB-239" value="" style="shape=tableRow;horizontal=0;startSize=0;swimlaneHead=0;swimlaneBody=0;strokeColor=inherit;top=0;left=0;bottom=0;right=0;collapsible=0;dropTarget=0;fillColor=none;points=[[0,0.5],[1,0.5]];portConstraint=eastwest;fontSize=16;" vertex="1" parent="3bR0r6EprU-SrU2B4QbB-230">
          <mxGeometry y="38" width="49.78" height="12" as="geometry" />
        </mxCell>
        <mxCell id="3bR0r6EprU-SrU2B4QbB-240" value="" style="shape=partialRectangle;html=1;whiteSpace=wrap;connectable=0;strokeColor=inherit;overflow=hidden;fillColor=none;top=0;left=0;bottom=0;right=0;pointerEvents=1;fontSize=16;" vertex="1" parent="3bR0r6EprU-SrU2B4QbB-239">
          <mxGeometry width="14" height="12" as="geometry">
            <mxRectangle width="14" height="12" as="alternateBounds" />
          </mxGeometry>
        </mxCell>
        <mxCell id="3bR0r6EprU-SrU2B4QbB-241" value="" style="shape=partialRectangle;html=1;whiteSpace=wrap;connectable=0;strokeColor=inherit;overflow=hidden;fillColor=none;top=0;left=0;bottom=0;right=0;pointerEvents=1;fontSize=16;" vertex="1" parent="3bR0r6EprU-SrU2B4QbB-239">
          <mxGeometry x="14" width="11" height="12" as="geometry">
            <mxRectangle width="11" height="12" as="alternateBounds" />
          </mxGeometry>
        </mxCell>
        <mxCell id="3bR0r6EprU-SrU2B4QbB-242" value="" style="shape=partialRectangle;html=1;whiteSpace=wrap;connectable=0;strokeColor=inherit;overflow=hidden;fillColor=none;top=0;left=0;bottom=0;right=0;pointerEvents=1;fontSize=16;" vertex="1" parent="3bR0r6EprU-SrU2B4QbB-239">
          <mxGeometry x="25" width="25" height="12" as="geometry">
            <mxRectangle width="25" height="12" as="alternateBounds" />
          </mxGeometry>
        </mxCell>
        <mxCell id="3bR0r6EprU-SrU2B4QbB-407" value="MERCH" style="shape=table;startSize=20;container=1;collapsible=0;childLayout=tableLayout;strokeColor=default;fontSize=10;fontFamily=Times New Roman;" vertex="1" parent="1">
          <mxGeometry x="245.61" y="128.46" width="49.78" height="50" as="geometry" />
        </mxCell>
        <mxCell id="3bR0r6EprU-SrU2B4QbB-408" value="" style="shape=tableRow;horizontal=0;startSize=0;swimlaneHead=0;swimlaneBody=0;strokeColor=inherit;top=0;left=0;bottom=0;right=0;collapsible=0;dropTarget=0;fillColor=none;points=[[0,0.5],[1,0.5]];portConstraint=eastwest;fontSize=16;" vertex="1" parent="3bR0r6EprU-SrU2B4QbB-407">
          <mxGeometry y="20" width="49.78" height="12" as="geometry" />
        </mxCell>
        <mxCell id="3bR0r6EprU-SrU2B4QbB-409" value="" style="shape=partialRectangle;html=1;whiteSpace=wrap;connectable=0;strokeColor=inherit;overflow=hidden;fillColor=none;top=0;left=0;bottom=0;right=0;pointerEvents=1;fontSize=16;" vertex="1" parent="3bR0r6EprU-SrU2B4QbB-408">
          <mxGeometry width="14" height="12" as="geometry">
            <mxRectangle width="14" height="12" as="alternateBounds" />
          </mxGeometry>
        </mxCell>
        <mxCell id="3bR0r6EprU-SrU2B4QbB-410" value="" style="shape=partialRectangle;html=1;whiteSpace=wrap;connectable=0;strokeColor=inherit;overflow=hidden;fillColor=none;top=0;left=0;bottom=0;right=0;pointerEvents=1;fontSize=16;" vertex="1" parent="3bR0r6EprU-SrU2B4QbB-408">
          <mxGeometry x="14" width="11" height="12" as="geometry">
            <mxRectangle width="11" height="12" as="alternateBounds" />
          </mxGeometry>
        </mxCell>
        <mxCell id="3bR0r6EprU-SrU2B4QbB-411" value="" style="shape=partialRectangle;html=1;whiteSpace=wrap;connectable=0;strokeColor=inherit;overflow=hidden;fillColor=none;top=0;left=0;bottom=0;right=0;pointerEvents=1;fontSize=16;" vertex="1" parent="3bR0r6EprU-SrU2B4QbB-408">
          <mxGeometry x="25" width="25" height="12" as="geometry">
            <mxRectangle width="25" height="12" as="alternateBounds" />
          </mxGeometry>
        </mxCell>
        <mxCell id="3bR0r6EprU-SrU2B4QbB-412" value="" style="shape=tableRow;horizontal=0;startSize=0;swimlaneHead=0;swimlaneBody=0;strokeColor=inherit;top=0;left=0;bottom=0;right=0;collapsible=0;dropTarget=0;fillColor=none;points=[[0,0.5],[1,0.5]];portConstraint=eastwest;fontSize=16;" vertex="1" parent="3bR0r6EprU-SrU2B4QbB-407">
          <mxGeometry y="32" width="49.78" height="6" as="geometry" />
        </mxCell>
        <mxCell id="3bR0r6EprU-SrU2B4QbB-413" value="" style="shape=partialRectangle;html=1;whiteSpace=wrap;connectable=0;strokeColor=inherit;overflow=hidden;fillColor=none;top=0;left=0;bottom=0;right=0;pointerEvents=1;fontSize=16;" vertex="1" parent="3bR0r6EprU-SrU2B4QbB-412">
          <mxGeometry width="14" height="6" as="geometry">
            <mxRectangle width="14" height="6" as="alternateBounds" />
          </mxGeometry>
        </mxCell>
        <mxCell id="3bR0r6EprU-SrU2B4QbB-414" value="" style="shape=partialRectangle;html=1;whiteSpace=wrap;connectable=0;strokeColor=inherit;overflow=hidden;fillColor=none;top=0;left=0;bottom=0;right=0;pointerEvents=1;fontSize=16;" vertex="1" parent="3bR0r6EprU-SrU2B4QbB-412">
          <mxGeometry x="14" width="11" height="6" as="geometry">
            <mxRectangle width="11" height="6" as="alternateBounds" />
          </mxGeometry>
        </mxCell>
        <mxCell id="3bR0r6EprU-SrU2B4QbB-415" value="" style="shape=partialRectangle;html=1;whiteSpace=wrap;connectable=0;strokeColor=inherit;overflow=hidden;fillColor=none;top=0;left=0;bottom=0;right=0;pointerEvents=1;fontSize=16;" vertex="1" parent="3bR0r6EprU-SrU2B4QbB-412">
          <mxGeometry x="25" width="25" height="6" as="geometry">
            <mxRectangle width="25" height="6" as="alternateBounds" />
          </mxGeometry>
        </mxCell>
        <mxCell id="3bR0r6EprU-SrU2B4QbB-416" value="" style="shape=tableRow;horizontal=0;startSize=0;swimlaneHead=0;swimlaneBody=0;strokeColor=inherit;top=0;left=0;bottom=0;right=0;collapsible=0;dropTarget=0;fillColor=none;points=[[0,0.5],[1,0.5]];portConstraint=eastwest;fontSize=16;" vertex="1" parent="3bR0r6EprU-SrU2B4QbB-407">
          <mxGeometry y="38" width="49.78" height="12" as="geometry" />
        </mxCell>
        <mxCell id="3bR0r6EprU-SrU2B4QbB-417" value="" style="shape=partialRectangle;html=1;whiteSpace=wrap;connectable=0;strokeColor=inherit;overflow=hidden;fillColor=none;top=0;left=0;bottom=0;right=0;pointerEvents=1;fontSize=16;" vertex="1" parent="3bR0r6EprU-SrU2B4QbB-416">
          <mxGeometry width="14" height="12" as="geometry">
            <mxRectangle width="14" height="12" as="alternateBounds" />
          </mxGeometry>
        </mxCell>
        <mxCell id="3bR0r6EprU-SrU2B4QbB-418" value="" style="shape=partialRectangle;html=1;whiteSpace=wrap;connectable=0;strokeColor=inherit;overflow=hidden;fillColor=none;top=0;left=0;bottom=0;right=0;pointerEvents=1;fontSize=16;" vertex="1" parent="3bR0r6EprU-SrU2B4QbB-416">
          <mxGeometry x="14" width="11" height="12" as="geometry">
            <mxRectangle width="11" height="12" as="alternateBounds" />
          </mxGeometry>
        </mxCell>
        <mxCell id="3bR0r6EprU-SrU2B4QbB-419" value="" style="shape=partialRectangle;html=1;whiteSpace=wrap;connectable=0;strokeColor=inherit;overflow=hidden;fillColor=none;top=0;left=0;bottom=0;right=0;pointerEvents=1;fontSize=16;" vertex="1" parent="3bR0r6EprU-SrU2B4QbB-416">
          <mxGeometry x="25" width="25" height="12" as="geometry">
            <mxRectangle width="25" height="12" as="alternateBounds" />
          </mxGeometry>
        </mxCell>
        <mxCell id="3bR0r6EprU-SrU2B4QbB-420" value="NAME" style="shape=table;startSize=20;container=1;collapsible=0;childLayout=tableLayout;strokeColor=default;fontSize=10;fontFamily=Times New Roman;" vertex="1" parent="1">
          <mxGeometry x="530" y="110.58" width="49.78" height="50" as="geometry" />
        </mxCell>
        <mxCell id="3bR0r6EprU-SrU2B4QbB-421" value="" style="shape=tableRow;horizontal=0;startSize=0;swimlaneHead=0;swimlaneBody=0;strokeColor=inherit;top=0;left=0;bottom=0;right=0;collapsible=0;dropTarget=0;fillColor=none;points=[[0,0.5],[1,0.5]];portConstraint=eastwest;fontSize=16;" vertex="1" parent="3bR0r6EprU-SrU2B4QbB-420">
          <mxGeometry y="20" width="49.78" height="12" as="geometry" />
        </mxCell>
        <mxCell id="3bR0r6EprU-SrU2B4QbB-422" value="" style="shape=partialRectangle;html=1;whiteSpace=wrap;connectable=0;strokeColor=inherit;overflow=hidden;fillColor=none;top=0;left=0;bottom=0;right=0;pointerEvents=1;fontSize=16;" vertex="1" parent="3bR0r6EprU-SrU2B4QbB-421">
          <mxGeometry width="14" height="12" as="geometry">
            <mxRectangle width="14" height="12" as="alternateBounds" />
          </mxGeometry>
        </mxCell>
        <mxCell id="3bR0r6EprU-SrU2B4QbB-423" value="" style="shape=partialRectangle;html=1;whiteSpace=wrap;connectable=0;strokeColor=inherit;overflow=hidden;fillColor=none;top=0;left=0;bottom=0;right=0;pointerEvents=1;fontSize=16;" vertex="1" parent="3bR0r6EprU-SrU2B4QbB-421">
          <mxGeometry x="14" width="11" height="12" as="geometry">
            <mxRectangle width="11" height="12" as="alternateBounds" />
          </mxGeometry>
        </mxCell>
        <mxCell id="3bR0r6EprU-SrU2B4QbB-424" value="" style="shape=partialRectangle;html=1;whiteSpace=wrap;connectable=0;strokeColor=inherit;overflow=hidden;fillColor=none;top=0;left=0;bottom=0;right=0;pointerEvents=1;fontSize=16;" vertex="1" parent="3bR0r6EprU-SrU2B4QbB-421">
          <mxGeometry x="25" width="25" height="12" as="geometry">
            <mxRectangle width="25" height="12" as="alternateBounds" />
          </mxGeometry>
        </mxCell>
        <mxCell id="3bR0r6EprU-SrU2B4QbB-425" value="" style="shape=tableRow;horizontal=0;startSize=0;swimlaneHead=0;swimlaneBody=0;strokeColor=inherit;top=0;left=0;bottom=0;right=0;collapsible=0;dropTarget=0;fillColor=none;points=[[0,0.5],[1,0.5]];portConstraint=eastwest;fontSize=16;" vertex="1" parent="3bR0r6EprU-SrU2B4QbB-420">
          <mxGeometry y="32" width="49.78" height="6" as="geometry" />
        </mxCell>
        <mxCell id="3bR0r6EprU-SrU2B4QbB-426" value="" style="shape=partialRectangle;html=1;whiteSpace=wrap;connectable=0;strokeColor=inherit;overflow=hidden;fillColor=none;top=0;left=0;bottom=0;right=0;pointerEvents=1;fontSize=16;" vertex="1" parent="3bR0r6EprU-SrU2B4QbB-425">
          <mxGeometry width="14" height="6" as="geometry">
            <mxRectangle width="14" height="6" as="alternateBounds" />
          </mxGeometry>
        </mxCell>
        <mxCell id="3bR0r6EprU-SrU2B4QbB-427" value="" style="shape=partialRectangle;html=1;whiteSpace=wrap;connectable=0;strokeColor=inherit;overflow=hidden;fillColor=none;top=0;left=0;bottom=0;right=0;pointerEvents=1;fontSize=16;" vertex="1" parent="3bR0r6EprU-SrU2B4QbB-425">
          <mxGeometry x="14" width="11" height="6" as="geometry">
            <mxRectangle width="11" height="6" as="alternateBounds" />
          </mxGeometry>
        </mxCell>
        <mxCell id="3bR0r6EprU-SrU2B4QbB-428" value="" style="shape=partialRectangle;html=1;whiteSpace=wrap;connectable=0;strokeColor=inherit;overflow=hidden;fillColor=none;top=0;left=0;bottom=0;right=0;pointerEvents=1;fontSize=16;" vertex="1" parent="3bR0r6EprU-SrU2B4QbB-425">
          <mxGeometry x="25" width="25" height="6" as="geometry">
            <mxRectangle width="25" height="6" as="alternateBounds" />
          </mxGeometry>
        </mxCell>
        <mxCell id="3bR0r6EprU-SrU2B4QbB-429" value="" style="shape=tableRow;horizontal=0;startSize=0;swimlaneHead=0;swimlaneBody=0;strokeColor=inherit;top=0;left=0;bottom=0;right=0;collapsible=0;dropTarget=0;fillColor=none;points=[[0,0.5],[1,0.5]];portConstraint=eastwest;fontSize=16;" vertex="1" parent="3bR0r6EprU-SrU2B4QbB-420">
          <mxGeometry y="38" width="49.78" height="12" as="geometry" />
        </mxCell>
        <mxCell id="3bR0r6EprU-SrU2B4QbB-430" value="" style="shape=partialRectangle;html=1;whiteSpace=wrap;connectable=0;strokeColor=inherit;overflow=hidden;fillColor=none;top=0;left=0;bottom=0;right=0;pointerEvents=1;fontSize=16;" vertex="1" parent="3bR0r6EprU-SrU2B4QbB-429">
          <mxGeometry width="14" height="12" as="geometry">
            <mxRectangle width="14" height="12" as="alternateBounds" />
          </mxGeometry>
        </mxCell>
        <mxCell id="3bR0r6EprU-SrU2B4QbB-431" value="" style="shape=partialRectangle;html=1;whiteSpace=wrap;connectable=0;strokeColor=inherit;overflow=hidden;fillColor=none;top=0;left=0;bottom=0;right=0;pointerEvents=1;fontSize=16;" vertex="1" parent="3bR0r6EprU-SrU2B4QbB-429">
          <mxGeometry x="14" width="11" height="12" as="geometry">
            <mxRectangle width="11" height="12" as="alternateBounds" />
          </mxGeometry>
        </mxCell>
        <mxCell id="3bR0r6EprU-SrU2B4QbB-432" value="" style="shape=partialRectangle;html=1;whiteSpace=wrap;connectable=0;strokeColor=inherit;overflow=hidden;fillColor=none;top=0;left=0;bottom=0;right=0;pointerEvents=1;fontSize=16;" vertex="1" parent="3bR0r6EprU-SrU2B4QbB-429">
          <mxGeometry x="25" width="25" height="12" as="geometry">
            <mxRectangle width="25" height="12" as="alternateBounds" />
          </mxGeometry>
        </mxCell>
        <mxCell id="3bR0r6EprU-SrU2B4QbB-433" value="ADDR" style="shape=table;startSize=20;container=1;collapsible=0;childLayout=tableLayout;strokeColor=default;fontSize=10;fontFamily=Times New Roman;" vertex="1" parent="1">
          <mxGeometry x="600.4200000000001" y="128.46" width="49.78" height="50" as="geometry" />
        </mxCell>
        <mxCell id="3bR0r6EprU-SrU2B4QbB-434" value="" style="shape=tableRow;horizontal=0;startSize=0;swimlaneHead=0;swimlaneBody=0;strokeColor=inherit;top=0;left=0;bottom=0;right=0;collapsible=0;dropTarget=0;fillColor=none;points=[[0,0.5],[1,0.5]];portConstraint=eastwest;fontSize=16;" vertex="1" parent="3bR0r6EprU-SrU2B4QbB-433">
          <mxGeometry y="20" width="49.78" height="12" as="geometry" />
        </mxCell>
        <mxCell id="3bR0r6EprU-SrU2B4QbB-435" value="" style="shape=partialRectangle;html=1;whiteSpace=wrap;connectable=0;strokeColor=inherit;overflow=hidden;fillColor=none;top=0;left=0;bottom=0;right=0;pointerEvents=1;fontSize=16;" vertex="1" parent="3bR0r6EprU-SrU2B4QbB-434">
          <mxGeometry width="14" height="12" as="geometry">
            <mxRectangle width="14" height="12" as="alternateBounds" />
          </mxGeometry>
        </mxCell>
        <mxCell id="3bR0r6EprU-SrU2B4QbB-436" value="" style="shape=partialRectangle;html=1;whiteSpace=wrap;connectable=0;strokeColor=inherit;overflow=hidden;fillColor=none;top=0;left=0;bottom=0;right=0;pointerEvents=1;fontSize=16;" vertex="1" parent="3bR0r6EprU-SrU2B4QbB-434">
          <mxGeometry x="14" width="11" height="12" as="geometry">
            <mxRectangle width="11" height="12" as="alternateBounds" />
          </mxGeometry>
        </mxCell>
        <mxCell id="3bR0r6EprU-SrU2B4QbB-437" value="" style="shape=partialRectangle;html=1;whiteSpace=wrap;connectable=0;strokeColor=inherit;overflow=hidden;fillColor=none;top=0;left=0;bottom=0;right=0;pointerEvents=1;fontSize=16;" vertex="1" parent="3bR0r6EprU-SrU2B4QbB-434">
          <mxGeometry x="25" width="25" height="12" as="geometry">
            <mxRectangle width="25" height="12" as="alternateBounds" />
          </mxGeometry>
        </mxCell>
        <mxCell id="3bR0r6EprU-SrU2B4QbB-438" value="" style="shape=tableRow;horizontal=0;startSize=0;swimlaneHead=0;swimlaneBody=0;strokeColor=inherit;top=0;left=0;bottom=0;right=0;collapsible=0;dropTarget=0;fillColor=none;points=[[0,0.5],[1,0.5]];portConstraint=eastwest;fontSize=16;" vertex="1" parent="3bR0r6EprU-SrU2B4QbB-433">
          <mxGeometry y="32" width="49.78" height="6" as="geometry" />
        </mxCell>
        <mxCell id="3bR0r6EprU-SrU2B4QbB-439" value="" style="shape=partialRectangle;html=1;whiteSpace=wrap;connectable=0;strokeColor=inherit;overflow=hidden;fillColor=none;top=0;left=0;bottom=0;right=0;pointerEvents=1;fontSize=16;" vertex="1" parent="3bR0r6EprU-SrU2B4QbB-438">
          <mxGeometry width="14" height="6" as="geometry">
            <mxRectangle width="14" height="6" as="alternateBounds" />
          </mxGeometry>
        </mxCell>
        <mxCell id="3bR0r6EprU-SrU2B4QbB-440" value="" style="shape=partialRectangle;html=1;whiteSpace=wrap;connectable=0;strokeColor=inherit;overflow=hidden;fillColor=none;top=0;left=0;bottom=0;right=0;pointerEvents=1;fontSize=16;" vertex="1" parent="3bR0r6EprU-SrU2B4QbB-438">
          <mxGeometry x="14" width="11" height="6" as="geometry">
            <mxRectangle width="11" height="6" as="alternateBounds" />
          </mxGeometry>
        </mxCell>
        <mxCell id="3bR0r6EprU-SrU2B4QbB-441" value="" style="shape=partialRectangle;html=1;whiteSpace=wrap;connectable=0;strokeColor=inherit;overflow=hidden;fillColor=none;top=0;left=0;bottom=0;right=0;pointerEvents=1;fontSize=16;" vertex="1" parent="3bR0r6EprU-SrU2B4QbB-438">
          <mxGeometry x="25" width="25" height="6" as="geometry">
            <mxRectangle width="25" height="6" as="alternateBounds" />
          </mxGeometry>
        </mxCell>
        <mxCell id="3bR0r6EprU-SrU2B4QbB-442" value="" style="shape=tableRow;horizontal=0;startSize=0;swimlaneHead=0;swimlaneBody=0;strokeColor=inherit;top=0;left=0;bottom=0;right=0;collapsible=0;dropTarget=0;fillColor=none;points=[[0,0.5],[1,0.5]];portConstraint=eastwest;fontSize=16;" vertex="1" parent="3bR0r6EprU-SrU2B4QbB-433">
          <mxGeometry y="38" width="49.78" height="12" as="geometry" />
        </mxCell>
        <mxCell id="3bR0r6EprU-SrU2B4QbB-443" value="" style="shape=partialRectangle;html=1;whiteSpace=wrap;connectable=0;strokeColor=inherit;overflow=hidden;fillColor=none;top=0;left=0;bottom=0;right=0;pointerEvents=1;fontSize=16;" vertex="1" parent="3bR0r6EprU-SrU2B4QbB-442">
          <mxGeometry width="14" height="12" as="geometry">
            <mxRectangle width="14" height="12" as="alternateBounds" />
          </mxGeometry>
        </mxCell>
        <mxCell id="3bR0r6EprU-SrU2B4QbB-444" value="" style="shape=partialRectangle;html=1;whiteSpace=wrap;connectable=0;strokeColor=inherit;overflow=hidden;fillColor=none;top=0;left=0;bottom=0;right=0;pointerEvents=1;fontSize=16;" vertex="1" parent="3bR0r6EprU-SrU2B4QbB-442">
          <mxGeometry x="14" width="11" height="12" as="geometry">
            <mxRectangle width="11" height="12" as="alternateBounds" />
          </mxGeometry>
        </mxCell>
        <mxCell id="3bR0r6EprU-SrU2B4QbB-445" value="" style="shape=partialRectangle;html=1;whiteSpace=wrap;connectable=0;strokeColor=inherit;overflow=hidden;fillColor=none;top=0;left=0;bottom=0;right=0;pointerEvents=1;fontSize=16;" vertex="1" parent="3bR0r6EprU-SrU2B4QbB-442">
          <mxGeometry x="25" width="25" height="12" as="geometry">
            <mxRectangle width="25" height="12" as="alternateBounds" />
          </mxGeometry>
        </mxCell>
        <mxCell id="3bR0r6EprU-SrU2B4QbB-446" value="ORDER" style="shape=table;startSize=20;container=1;collapsible=0;childLayout=tableLayout;strokeColor=default;fontSize=10;fontFamily=Times New Roman;" vertex="1" parent="1">
          <mxGeometry x="389" y="118.21" width="49.78" height="50" as="geometry" />
        </mxCell>
        <mxCell id="3bR0r6EprU-SrU2B4QbB-447" value="" style="shape=tableRow;horizontal=0;startSize=0;swimlaneHead=0;swimlaneBody=0;strokeColor=inherit;top=0;left=0;bottom=0;right=0;collapsible=0;dropTarget=0;fillColor=none;points=[[0,0.5],[1,0.5]];portConstraint=eastwest;fontSize=16;" vertex="1" parent="3bR0r6EprU-SrU2B4QbB-446">
          <mxGeometry y="20" width="49.78" height="12" as="geometry" />
        </mxCell>
        <mxCell id="3bR0r6EprU-SrU2B4QbB-448" value="" style="shape=partialRectangle;html=1;whiteSpace=wrap;connectable=0;strokeColor=inherit;overflow=hidden;fillColor=none;top=0;left=0;bottom=0;right=0;pointerEvents=1;fontSize=16;" vertex="1" parent="3bR0r6EprU-SrU2B4QbB-447">
          <mxGeometry width="5" height="12" as="geometry">
            <mxRectangle width="5" height="12" as="alternateBounds" />
          </mxGeometry>
        </mxCell>
        <mxCell id="3bR0r6EprU-SrU2B4QbB-449" value="" style="shape=partialRectangle;html=1;whiteSpace=wrap;connectable=0;strokeColor=inherit;overflow=hidden;fillColor=none;top=0;left=0;bottom=0;right=0;pointerEvents=1;fontSize=16;" vertex="1" parent="3bR0r6EprU-SrU2B4QbB-447">
          <mxGeometry x="5" width="20" height="12" as="geometry">
            <mxRectangle width="20" height="12" as="alternateBounds" />
          </mxGeometry>
        </mxCell>
        <mxCell id="3bR0r6EprU-SrU2B4QbB-450" value="" style="shape=partialRectangle;html=1;whiteSpace=wrap;connectable=0;strokeColor=inherit;overflow=hidden;fillColor=none;top=0;left=0;bottom=0;right=0;pointerEvents=1;fontSize=16;" vertex="1" parent="3bR0r6EprU-SrU2B4QbB-447">
          <mxGeometry x="25" width="25" height="12" as="geometry">
            <mxRectangle width="25" height="12" as="alternateBounds" />
          </mxGeometry>
        </mxCell>
        <mxCell id="3bR0r6EprU-SrU2B4QbB-451" value="" style="shape=tableRow;horizontal=0;startSize=0;swimlaneHead=0;swimlaneBody=0;strokeColor=inherit;top=0;left=0;bottom=0;right=0;collapsible=0;dropTarget=0;fillColor=none;points=[[0,0.5],[1,0.5]];portConstraint=eastwest;fontSize=16;" vertex="1" parent="3bR0r6EprU-SrU2B4QbB-446">
          <mxGeometry y="32" width="49.78" height="6" as="geometry" />
        </mxCell>
        <mxCell id="3bR0r6EprU-SrU2B4QbB-452" value="" style="shape=partialRectangle;html=1;whiteSpace=wrap;connectable=0;strokeColor=inherit;overflow=hidden;fillColor=none;top=0;left=0;bottom=0;right=0;pointerEvents=1;fontSize=16;" vertex="1" parent="3bR0r6EprU-SrU2B4QbB-451">
          <mxGeometry width="5" height="6" as="geometry">
            <mxRectangle width="5" height="6" as="alternateBounds" />
          </mxGeometry>
        </mxCell>
        <mxCell id="3bR0r6EprU-SrU2B4QbB-453" value="" style="shape=partialRectangle;html=1;whiteSpace=wrap;connectable=0;strokeColor=inherit;overflow=hidden;fillColor=none;top=0;left=0;bottom=0;right=0;pointerEvents=1;fontSize=16;" vertex="1" parent="3bR0r6EprU-SrU2B4QbB-451">
          <mxGeometry x="5" width="20" height="6" as="geometry">
            <mxRectangle width="20" height="6" as="alternateBounds" />
          </mxGeometry>
        </mxCell>
        <mxCell id="3bR0r6EprU-SrU2B4QbB-454" value="" style="shape=partialRectangle;html=1;whiteSpace=wrap;connectable=0;strokeColor=inherit;overflow=hidden;fillColor=none;top=0;left=0;bottom=0;right=0;pointerEvents=1;fontSize=16;" vertex="1" parent="3bR0r6EprU-SrU2B4QbB-451">
          <mxGeometry x="25" width="25" height="6" as="geometry">
            <mxRectangle width="25" height="6" as="alternateBounds" />
          </mxGeometry>
        </mxCell>
        <mxCell id="3bR0r6EprU-SrU2B4QbB-455" value="" style="shape=tableRow;horizontal=0;startSize=0;swimlaneHead=0;swimlaneBody=0;strokeColor=inherit;top=0;left=0;bottom=0;right=0;collapsible=0;dropTarget=0;fillColor=none;points=[[0,0.5],[1,0.5]];portConstraint=eastwest;fontSize=16;" vertex="1" parent="3bR0r6EprU-SrU2B4QbB-446">
          <mxGeometry y="38" width="49.78" height="12" as="geometry" />
        </mxCell>
        <mxCell id="3bR0r6EprU-SrU2B4QbB-456" value="" style="shape=partialRectangle;html=1;whiteSpace=wrap;connectable=0;strokeColor=inherit;overflow=hidden;fillColor=none;top=0;left=0;bottom=0;right=0;pointerEvents=1;fontSize=16;" vertex="1" parent="3bR0r6EprU-SrU2B4QbB-455">
          <mxGeometry width="5" height="12" as="geometry">
            <mxRectangle width="5" height="12" as="alternateBounds" />
          </mxGeometry>
        </mxCell>
        <mxCell id="3bR0r6EprU-SrU2B4QbB-457" value="" style="shape=partialRectangle;html=1;whiteSpace=wrap;connectable=0;strokeColor=inherit;overflow=hidden;fillColor=none;top=0;left=0;bottom=0;right=0;pointerEvents=1;fontSize=16;" vertex="1" parent="3bR0r6EprU-SrU2B4QbB-455">
          <mxGeometry x="5" width="20" height="12" as="geometry">
            <mxRectangle width="20" height="12" as="alternateBounds" />
          </mxGeometry>
        </mxCell>
        <mxCell id="3bR0r6EprU-SrU2B4QbB-458" value="" style="shape=partialRectangle;html=1;whiteSpace=wrap;connectable=0;strokeColor=inherit;overflow=hidden;fillColor=none;top=0;left=0;bottom=0;right=0;pointerEvents=1;fontSize=16;" vertex="1" parent="3bR0r6EprU-SrU2B4QbB-455">
          <mxGeometry x="25" width="25" height="12" as="geometry">
            <mxRectangle width="25" height="12" as="alternateBounds" />
          </mxGeometry>
        </mxCell>
        <mxCell id="3bR0r6EprU-SrU2B4QbB-459" value="" style="group" vertex="1" connectable="0" parent="1">
          <mxGeometry x="314.64" y="45.5" width="210" height="29.58" as="geometry" />
        </mxCell>
        <mxCell id="3bR0r6EprU-SrU2B4QbB-460" value="" style="dashed=0;outlineConnect=0;html=1;align=center;labelPosition=center;verticalLabelPosition=bottom;verticalAlign=top;shape=mxgraph.weblogos.json" vertex="1" parent="3bR0r6EprU-SrU2B4QbB-459">
          <mxGeometry y="5.111854471955547" width="30.26954307404026" height="20.85098534613441" as="geometry" />
        </mxCell>
        <mxCell id="3bR0r6EprU-SrU2B4QbB-461" value="" style="image;sketch=0;aspect=fixed;html=1;points=[];align=center;fontSize=12;image=img/lib/mscae/Spatial_Anchor.svg;" vertex="1" parent="3bR0r6EprU-SrU2B4QbB-459">
          <mxGeometry x="53.63763032719931" width="28.399191510864075" height="29.580000000000002" as="geometry" />
        </mxCell>
        <mxCell id="3bR0r6EprU-SrU2B4QbB-462" value="" style="outlineConnect=0;dashed=0;verticalLabelPosition=bottom;verticalAlign=top;align=center;html=1;shape=mxgraph.aws3.generic;fillColor=#5294CF;gradientColor=none;" vertex="1" parent="3bR0r6EprU-SrU2B4QbB-459">
          <mxGeometry x="179.73045692595971" y="3.6171601819100583" width="30.26954307404026" height="22.420414350682165" as="geometry" />
        </mxCell>
        <mxCell id="3bR0r6EprU-SrU2B4QbB-463" value="&lt;br&gt;" style="sketch=0;outlineConnect=0;fontColor=#232F3E;gradientColor=none;strokeColor=#232F3E;fillColor=#ffffff;dashed=0;verticalLabelPosition=bottom;verticalAlign=top;align=center;html=1;fontSize=12;fontStyle=0;aspect=fixed;shape=mxgraph.aws4.resourceIcon;resIcon=mxgraph.aws4.search_documents;" vertex="1" parent="3bR0r6EprU-SrU2B4QbB-459">
          <mxGeometry x="117.38528804112813" y="2.6007680646791305" width="25.873158160687215" height="25.873158160687215" as="geometry" />
        </mxCell>
      </root>
    </mxGraphModel>
  </diagram>
</mxfile>
